<?xml version="1.0" ?><svg data-name="Layer 1" id="Layer_1" viewBox="0 0 500 500" xmlns="http://www.w3.org/2000/svg"><defs><style>.cls-1{fill:#d89a00;}.cls-2{fill:#f4b400;}.cls-3{fill:#fff;}</style></defs><title/><circle class="cls-1" cx="250" cy="250" r="250"/><circle class="cls-2" cx="250" cy="250" r="203.65"/><path class="cls-3" d="M308.73,295.86H191.28V272a99.2,99.2,0,0,1-40.89-81.77C151,138.45,193.61,94.39,245.27,92a99.62,99.62,0,0,1,63.46,180ZM210,277.11H290V262l4.24-2.78a80.87,80.87,0,0,0-48.08-148.5c-41.92,1.95-76.46,37.71-77,79.72a80.6,80.6,0,0,0,36.65,68.77L210,262Z"/><path class="cls-3" d="M261.51,371.69h-23a47.27,47.27,0,0,1-47.22-47.22V315.1H308.73v9.38A47.27,47.27,0,0,1,261.51,371.69Zm-49.9-37.84a28.52,28.52,0,0,0,26.88,19.09h23a28.52,28.52,0,0,0,26.88-19.09Z"/><rect class="cls-3" height="17.77" rx="1.42" ry="1.42" width="46.16" x="226.92" y="380.96"/><path class="cls-3" d="M292.92,333.85H207.08a15.82,15.82,0,0,1-15.8-15.8V292.91a15.82,15.82,0,0,1,15.8-15.8h85.85a15.82,15.82,0,0,1,15.8,15.8V318A15.82,15.82,0,0,1,292.92,333.85ZM210,315.1H290V295.86H210Z"/></svg>